/vscmnt/brussel_pixiu_data/_data_brussel/112/vsc11236/PredSimResults/SUBJ10mtu3D/worker9.mot
version=1
nRows=4
nColumns=50
inDegrees=yes
endheader
                time	         pelvis_tilt	         pelvis_list	     pelvis_rotation	           pelvis_tx	           pelvis_ty	           pelvis_tz	       hip_flexion_r	     hip_adduction_r	      hip_rotation_r	        knee_angle_r	       ankle_angle_r	         mtp_angle_r	       hip_flexion_l	     hip_adduction_l	      hip_rotation_l	        knee_angle_l	       ankle_angle_l	         mtp_angle_l	    lumbar_extension	      lumbar_bending	     lumbar_rotation	 ercspn_r/activation	 intobl_r/activation	 extobl_r/activation	    abd_r/activation	    add_r/activation	hamstrings_r/activation	bifemsh_r/activation	glut_max_r/activation	iliopsoas_r/activation	rect_fem_r/activation	  vasti_r/activation	gastroc_r/activation	 soleus_r/activation	tib_ant_r/activation	 ercspn_l/activation	 intobl_l/activation	 extobl_l/activation	    abd_l/activation	    add_l/activation	hamstrings_l/activation	bifemsh_l/activation	glut_max_l/activation	iliopsoas_l/activation	rect_fem_l/activation	  vasti_l/activation	gastroc_l/activation	 soleus_l/activation	tib_ant_l/activation	
          1.11636270	         -3.30494017	         -0.92224558	          7.92861408	          1.35079887	          0.82305416	         -0.01355166	         30.58677019	         -2.06411593	         -6.40800076	         -7.40501292	          3.05544859	          0.26406867	        -17.98776203	         -1.11832211	          0.75785925	         -4.21935516	          7.89469084	         26.23649121	         -8.05716246	         -0.59685604	         -6.01394109	          0.12410400	          0.19233484	          0.01000005	          0.01000005	          0.10098288	          0.13542198	          0.26407827	          0.02392838	          0.10339331	          0.01000012	          0.01000002	          0.01000111	          0.01000001	          0.29028055	          0.06623024	          0.01000000	          0.01000002	          0.05840219	          0.01000003	          0.01468661	          0.23662398	          0.01404277	          0.42228644	          0.01000012	          0.01000001	          0.32915743	          0.24262668	          0.02605889	
          1.12752633	         -3.34283397	         -0.87385117	          8.03622690	          1.36641509	          0.82166994	         -0.01345438	         30.49639768	         -1.94331511	         -6.08152813	         -8.95663533	          2.79998843	          0.26244032	        -18.10530822	         -1.20307881	          0.45206952	         -5.86862358	          7.20976196	         27.93671570	         -7.87427057	         -0.17024410	         -6.30995401	          0.10463569	          0.16216280	          0.01000005	          0.01000000	          0.15551191	          0.11540476	          0.22265268	          0.06056146	          0.08717373	          0.01000006	          0.01000000	          0.01668492	          0.01186071	          0.31097826	          0.10950125	          0.01000000	          0.01000002	          0.04924049	          0.01000206	          0.01269846	          0.19950416	          0.01186068	          0.35604129	          0.01000010	          0.01000001	          0.29666497	          0.23384153	          0.02197096	
          1.13868996	         -3.36983594	         -0.83836368	          8.10153276	          1.38236909	          0.82049298	         -0.01327427	         30.23197966	         -1.82655218	         -5.68368681	        -10.39692720	          2.41373567	          0.25324354	        -18.11948205	         -1.30634679	          0.11844610	         -7.74108190	          6.38391265	         29.59111464	         -7.66622426	          0.27795692	         -6.58321963	          0.09389321	          0.13672391	          0.01000004	          0.02981963	          0.13111639	          0.09867555	          0.18772462	          0.09722706	          0.07349856	          0.01000003	          0.01000000	          0.01406752	          0.01000010	          0.39619800	          0.12269166	          0.01000000	          0.01000004	          0.04151600	          0.01000021	          0.01070857	          0.16820743	          0.01000010	          0.30018817	          0.01000013	          0.01000002	          0.25012637	          0.21962707	          0.01852432	
          1.14985359	         -3.38741127	         -0.80319437	          8.11710495	          1.39845557	          0.81964262	         -0.01296494	         29.88580272	         -1.70365348	         -5.37118612	        -11.67804124	          1.89804226	          0.24110557	        -17.96310374	         -1.41409212	         -0.24830952	         -9.92456321	          5.41863773	         31.11660908	         -7.45795379	          0.72390564	         -6.82610472	          0.11165031	          0.11527567	          0.01000003	          0.08309518	          0.17217798	          0.08319608	          0.15827578	          0.11215627	          0.06196864	          0.01000003	          0.01000001	          0.01186072	          0.01000000	          0.44874653	          0.15058087	          0.01000000	          0.01000002	          0.03500328	          0.01000006	          0.01237674	          0.14182030	          0.01000003	          0.25309687	          0.01000015	          0.01000001	          0.21088839	          0.20281188	          0.01561836	
